<?xml version="1.0" standalone="no"?>
<!DOCTYPE svg PUBLIC "-//W3C//DTD SVG 20010904//EN"
 "http://www.w3.org/TR/2001/REC-SVG-20010904/DTD/svg10.dtd">
<svg version="1.0" xmlns="http://www.w3.org/2000/svg"
 width="512.000000pt" height="512.000000pt" viewBox="0 0 512.000000 512.000000"
 preserveAspectRatio="xMidYMid meet">

<g transform="translate(0.000000,512.000000) scale(0.100000,-0.100000)"
fill="#ffffff" stroke="none">
<path d="M772 4800 c-222 -58 -395 -233 -452 -456 -19 -75 -20 -116 -20 -1391
l0 -1313 60 0 60 0 0 1308 c0 1436 -3 1357 61 1484 40 79 128 167 207 207 128
64 42 61 1544 61 l1368 0 0 60 0 60 -1377 -1 c-1326 0 -1381 -1 -1451 -19z"/>
<path d="M3680 4760 l0 -60 288 0 c223 0 301 -3 345 -15 185 -48 324 -187 372
-372 23 -86 23 -3420 0 -3506 -48 -185 -187 -324 -372 -372 -86 -23 -3420 -23
-3506 0 -185 48 -324 187 -372 372 -11 43 -15 118 -15 305 l0 248 -60 0 -60 0
0 -253 c0 -220 3 -264 20 -331 57 -225 231 -399 456 -456 76 -20 114 -20 1784
-20 1666 0 1709 0 1784 20 225 57 399 231 456 456 20 76 20 114 20 1784 0
1670 0 1708 -20 1784 -57 225 -231 399 -456 456 -68 18 -111 20 -371 20 l-293
0 0 -60z"/>
<path d="M1698 3964 c-21 -7 -54 -78 -73 -157 -16 -68 -19 -226 -6 -296 9 -43
7 -48 -40 -116 -80 -118 -106 -195 -115 -350 -20 -311 76 -577 266 -739 92
-79 289 -166 411 -182 27 -4 49 -10 49 -14 0 -4 -12 -33 -26 -63 -22 -48 -30
-58 -62 -67 -49 -13 -112 -13 -168 1 -36 9 -55 23 -97 72 -169 198 -211 227
-321 227 -91 0 -126 -23 -126 -82 0 -34 6 -46 36 -72 125 -109 132 -118 177
-209 96 -198 222 -277 443 -277 l73 0 3 -102 c5 -161 4 -162 -57 -209 -57 -43
-81 -84 -71 -123 12 -50 28 -51 616 -51 300 0 557 3 572 8 38 10 58 34 58 67
0 23 -13 41 -64 85 l-64 56 -5 282 c-5 284 -11 335 -47 410 -11 22 -20 44 -20
48 0 4 21 10 47 14 26 4 85 18 132 31 364 106 526 377 508 849 -7 192 -44 307
-141 435 l-41 55 3 145 c3 126 1 154 -18 214 -30 95 -53 116 -127 116 -87 0
-196 -38 -343 -120 l-75 -42 -80 12 c-200 29 -517 22 -658 -15 l-51 -13 -100
58 c-56 33 -136 71 -179 85 -75 25 -184 39 -219 29z m192 -147 c63 -23 171
-80 215 -113 52 -39 74 -43 143 -23 170 48 470 52 697 8 l60 -12 75 46 c98 59
234 119 286 125 l41 4 13 -53 c9 -37 11 -95 7 -195 l-6 -142 48 -64 c114 -151
146 -264 138 -487 -6 -175 -25 -271 -73 -369 -85 -175 -260 -273 -556 -313
-108 -14 -138 -28 -138 -66 0 -19 15 -41 54 -79 83 -79 88 -100 93 -449 5
-286 5 -290 29 -328 l24 -37 -425 0 -425 0 26 39 c25 39 25 41 24 232 0 159
-3 197 -16 209 -12 12 -44 15 -162 15 -140 0 -149 1 -198 27 -66 35 -105 81
-155 181 -22 44 -43 86 -47 92 -4 6 9 -7 28 -29 133 -158 179 -182 340 -180
124 1 202 28 219 77 26 71 64 137 97 167 28 25 35 38 32 63 -4 41 -26 51 -160
72 -384 59 -577 243 -628 600 -32 225 2 380 116 533 42 57 46 66 40 105 -3 23
-9 92 -12 153 -5 88 -3 123 10 168 l17 57 37 -7 c20 -4 62 -16 92 -27z"/>
<path d="M300 1500 l0 -60 60 0 60 0 0 60 0 60 -60 0 -60 0 0 -60z"/>
</g>
</svg>
